<svg width="90" height="90" viewBox="0 0 90 90" fill="none" xmlns="http://www.w3.org/2000/svg">
<g filter="url(#filter0_d_3_46)">
<circle cx="45" cy="37" r="25" fill="#237B9F" stroke="white" stroke-width="4"/>
<path d="M44.925 40.81C39.75 40.81 35.382 41.656 35.382 44.92C35.382 48.184 39.777 49 44.925 49C50.1 49 54.4665 48.154 54.4665 44.89C54.4665 41.626 50.0715 40.81 44.9265 40.81H44.925Z" fill="white"/>
<path d="M44.9235 37.7005C45.7559 37.7011 46.5802 37.537 47.3489 37.2177C48.1176 36.8984 48.8155 36.4302 49.4025 35.84C49.9894 35.2499 50.4539 34.5494 50.769 33.7789C51.0841 33.0085 51.2437 32.1834 51.2385 31.351C51.2441 30.5183 51.0847 29.6928 50.7697 28.922C50.4546 28.1512 49.9901 27.4504 49.4029 26.86C48.8157 26.2696 48.1175 25.8013 47.3484 25.4821C46.5793 25.1628 45.7547 24.999 44.922 25C44.0895 24.9992 43.265 25.1632 42.4961 25.4825C41.7272 25.8018 41.0291 26.2702 40.4421 26.8606C39.855 27.4509 39.3907 28.1517 39.0757 28.9224C38.7608 29.6931 38.6015 30.5185 38.607 31.351C38.6019 32.1834 38.7614 33.0085 39.0766 33.7789C39.3917 34.5494 39.8561 35.2499 40.4431 35.84C41.03 36.4302 41.728 36.8984 42.4967 37.2177C43.2654 37.537 44.0896 37.7011 44.922 37.7005H44.9235ZM58.632 32.83C59.538 29.263 56.88 26.0605 53.496 26.0605C53.1285 26.0605 52.776 26.101 52.431 26.17C52.386 26.1805 52.335 26.203 52.308 26.245C52.278 26.2945 52.3005 26.365 52.335 26.4085C53.3809 27.8862 53.9403 29.6531 53.9355 31.4635C53.942 33.1958 53.4277 34.89 52.4595 36.3265C52.4374 36.3595 52.4239 36.3975 52.4203 36.4371C52.4167 36.4767 52.4231 36.5165 52.439 36.553C52.4548 36.5894 52.4795 36.6213 52.5109 36.6457C52.5423 36.6701 52.5793 36.6862 52.6185 36.6925C52.8555 36.7345 53.0985 36.7555 53.3445 36.763C55.809 36.8275 58.0215 35.233 58.632 32.8285V32.83Z" fill="white"/>
<path d="M61.215 41.2255C60.762 40.258 59.673 39.595 58.017 39.2695C57.2355 39.0775 55.1205 38.8075 53.1525 38.8435C53.1225 38.848 53.1075 38.869 53.1045 38.8825C53.1 38.9005 53.1075 38.9335 53.1465 38.953C54.057 39.406 57.5715 41.374 57.129 45.5245C57.111 45.7045 57.255 45.8605 57.4335 45.8335C58.2975 45.709 60.5235 45.2275 61.2135 43.7305C61.4019 43.3398 61.4998 42.9117 61.4998 42.478C61.4998 42.0443 61.4034 41.6162 61.215 41.2255Z" fill="white"/>
<path d="M37.5675 26.17C37.2171 26.0974 36.8603 26.0607 36.5025 26.0605C33.1185 26.0605 30.4605 29.263 31.3695 32.83C31.9785 35.233 34.1895 36.8275 36.6555 36.763C36.903 36.7555 37.146 36.733 37.38 36.6925C37.4194 36.6864 37.4565 36.6704 37.4881 36.6461C37.5197 36.6218 37.5446 36.59 37.5606 36.5535C37.5766 36.517 37.5831 36.4771 37.5796 36.4374C37.5761 36.3977 37.5627 36.3596 37.5405 36.3265C36.5727 34.8904 36.0585 33.1967 36.0645 31.465C36.0595 29.6543 36.6195 27.8872 37.6665 26.41C37.6995 26.365 37.7235 26.296 37.6905 26.245C37.6635 26.2015 37.6155 26.1805 37.5675 26.17Z" fill="white"/>
<path d="M31.983 39.2695C30.327 39.595 29.238 40.258 28.788 41.2255C28.5991 41.616 28.501 42.0442 28.501 42.478C28.501 42.9118 28.5991 43.34 28.788 43.7305C29.478 45.2275 31.7025 45.7105 32.568 45.832C32.7465 45.859 32.889 45.706 32.8695 45.5245C32.4285 41.3755 35.9445 39.406 36.8535 38.9545C36.891 38.932 36.8985 38.902 36.8955 38.881C36.8925 38.8675 36.8775 38.848 36.849 38.845C34.8795 38.8075 32.766 39.0775 31.983 39.2695Z" fill="white"/>
</g>
<defs>
<filter id="filter0_d_3_46" x="0" y="0" width="90" height="90" filterUnits="userSpaceOnUse" color-interpolation-filters="sRGB">
<feFlood flood-opacity="0" result="BackgroundImageFix"/>
<feColorMatrix in="SourceAlpha" type="matrix" values="0 0 0 0 0 0 0 0 0 0 0 0 0 0 0 0 0 0 127 0" result="hardAlpha"/>
<feOffset dy="8"/>
<feGaussianBlur stdDeviation="9"/>
<feComposite in2="hardAlpha" operator="out"/>
<feColorMatrix type="matrix" values="0 0 0 0 1 0 0 0 0 0.458824 0 0 0 0 0.333333 0 0 0 0.1 0"/>
<feBlend mode="normal" in2="BackgroundImageFix" result="effect1_dropShadow_3_46"/>
<feBlend mode="normal" in="SourceGraphic" in2="effect1_dropShadow_3_46" result="shape"/>
</filter>
</defs>
</svg>
