<svg width="54" height="54" viewBox="0 0 54 54" fill="none" xmlns="http://www.w3.org/2000/svg">
<circle cx="27" cy="27" r="25" fill="#237B9F" stroke="white" stroke-width="4"/>
<path d="M26.925 30.81C21.75 30.81 17.382 31.656 17.382 34.92C17.382 38.184 21.777 39 26.925 39C32.1 39 36.4665 38.154 36.4665 34.89C36.4665 31.626 32.0715 30.81 26.9265 30.81H26.925Z" fill="white"/>
<path d="M26.9235 27.7005C27.7559 27.7011 28.5802 27.537 29.3489 27.2177C30.1176 26.8984 30.8155 26.4302 31.4025 25.84C31.9894 25.2499 32.4539 24.5494 32.769 23.7789C33.0841 23.0085 33.2437 22.1834 33.2385 21.351C33.2441 20.5183 33.0847 19.6928 32.7697 18.922C32.4546 18.1512 31.9901 17.4504 31.4029 16.86C30.8157 16.2696 30.1175 15.8013 29.3484 15.4821C28.5793 15.1628 27.7547 14.999 26.922 15C26.0895 14.9992 25.265 15.1632 24.4961 15.4825C23.7272 15.8018 23.0291 16.2702 22.4421 16.8606C21.855 17.4509 21.3907 18.1517 21.0757 18.9224C20.7608 19.6931 20.6015 20.5185 20.607 21.351C20.6019 22.1834 20.7614 23.0085 21.0766 23.7789C21.3917 24.5494 21.8561 25.2499 22.4431 25.84C23.03 26.4302 23.728 26.8984 24.4967 27.2177C25.2654 27.537 26.0896 27.7011 26.922 27.7005H26.9235ZM40.632 22.83C41.538 19.263 38.88 16.0605 35.496 16.0605C35.1285 16.0605 34.776 16.101 34.431 16.17C34.386 16.1805 34.335 16.203 34.308 16.245C34.278 16.2945 34.3005 16.365 34.335 16.4085C35.3809 17.8862 35.9403 19.6531 35.9355 21.4635C35.942 23.1958 35.4277 24.89 34.4595 26.3265C34.4374 26.3595 34.4239 26.3975 34.4203 26.4371C34.4167 26.4767 34.4231 26.5165 34.439 26.553C34.4548 26.5894 34.4795 26.6213 34.5109 26.6457C34.5423 26.6701 34.5793 26.6862 34.6185 26.6925C34.8555 26.7345 35.0985 26.7555 35.3445 26.763C37.809 26.8275 40.0215 25.233 40.632 22.8285V22.83Z" fill="white"/>
<path d="M43.215 31.2255C42.762 30.258 41.673 29.595 40.017 29.2695C39.2355 29.0775 37.1205 28.8075 35.1525 28.8435C35.1225 28.848 35.1075 28.869 35.1045 28.8825C35.1 28.9005 35.1075 28.9335 35.1465 28.953C36.057 29.406 39.5715 31.374 39.129 35.5245C39.111 35.7045 39.255 35.8605 39.4335 35.8335C40.2975 35.709 42.5235 35.2275 43.2135 33.7305C43.4019 33.3398 43.4998 32.9117 43.4998 32.478C43.4998 32.0443 43.4034 31.6162 43.215 31.2255Z" fill="white"/>
<path d="M19.5675 16.17C19.2171 16.0974 18.8603 16.0607 18.5025 16.0605C15.1185 16.0605 12.4605 19.263 13.3695 22.83C13.9785 25.233 16.1895 26.8275 18.6555 26.763C18.903 26.7555 19.146 26.733 19.38 26.6925C19.4194 26.6864 19.4565 26.6704 19.4881 26.6461C19.5197 26.6218 19.5446 26.59 19.5606 26.5535C19.5766 26.517 19.5831 26.4771 19.5796 26.4374C19.5761 26.3977 19.5627 26.3596 19.5405 26.3265C18.5727 24.8904 18.0585 23.1967 18.0645 21.465C18.0595 19.6543 18.6195 17.8872 19.6665 16.41C19.6995 16.365 19.7235 16.296 19.6905 16.245C19.6635 16.2015 19.6155 16.1805 19.5675 16.17Z" fill="white"/>
<path d="M13.983 29.2695C12.327 29.595 11.238 30.258 10.788 31.2255C10.5991 31.616 10.501 32.0442 10.501 32.478C10.501 32.9118 10.5991 33.34 10.788 33.7305C11.478 35.2275 13.7025 35.7105 14.568 35.832C14.7465 35.859 14.889 35.706 14.8695 35.5245C14.4285 31.3755 17.9445 29.406 18.8535 28.9545C18.891 28.932 18.8985 28.902 18.8955 28.881C18.8925 28.8675 18.8775 28.848 18.849 28.845C16.8795 28.8075 14.766 29.0775 13.983 29.2695Z" fill="white"/>
</svg>
