<svg width="24" height="24" viewBox="0 0 24 24" fill="none" xmlns="http://www.w3.org/2000/svg">
<path d="M16.191 2H7.81C4.77 2 3 3.78 3 6.83V17.16C3 20.26 4.77 22 7.81 22H16.191C19.28 22 21 20.26 21 17.16V6.83C21 3.78 19.28 2 16.191 2Z" fill="#51ABC5"/>
<path fill-rule="evenodd" clip-rule="evenodd" d="M8.07998 6.64999V6.65999C7.87311 6.65999 7.67471 6.74217 7.52844 6.88845C7.38216 7.03473 7.29998 7.23312 7.29998 7.43999C7.29998 7.64686 7.38216 7.84526 7.52844 7.99154C7.67471 8.13782 7.87311 8.21999 8.07998 8.21999H11.069C11.5 8.21999 11.85 7.86999 11.85 7.42899C11.8494 7.22221 11.7669 7.02407 11.6205 6.87804C11.4741 6.732 11.2758 6.64999 11.069 6.64999H8.07998ZM15.92 12.74H8.07998C7.87298 12.74 7.67445 12.6578 7.52808 12.5114C7.38171 12.365 7.29948 12.1665 7.29948 11.9595C7.29948 11.7525 7.38171 11.554 7.52808 11.4076C7.67445 11.2612 7.87298 11.179 8.07998 11.179H15.92C16.1221 11.1862 16.3136 11.2716 16.4541 11.4172C16.5945 11.5628 16.673 11.7572 16.673 11.9595C16.673 12.1618 16.5945 12.3562 16.4541 12.5018C16.3136 12.6474 16.1221 12.7328 15.92 12.74ZM15.92 17.31H8.07998C7.77998 17.35 7.48998 17.2 7.32998 16.95C7.25212 16.8242 7.2109 16.6792 7.21094 16.5313C7.21098 16.3834 7.25229 16.2384 7.33022 16.1127C7.40814 15.987 7.5196 15.8855 7.65205 15.8196C7.78451 15.7538 7.93271 15.7262 8.07998 15.74H15.92C16.319 15.78 16.62 16.12 16.62 16.53C16.62 16.929 16.319 17.27 15.92 17.31Z" fill="white"/>
</svg>
