<svg width="24" height="24" viewBox="0 0 24 24" fill="none" xmlns="http://www.w3.org/2000/svg">
<path d="M9.144 20.782V17.715C9.144 16.938 9.776 16.307 10.558 16.302H13.433C14.219 16.302 14.856 16.935 14.856 17.715V20.773C14.856 21.447 15.404 21.995 16.083 22H18.043C18.9578 22.0029 19.8366 21.6433 20.487 21C20.8075 20.6832 21.062 20.3061 21.2359 19.8904C21.4098 19.4747 21.4996 19.0286 21.5 18.578V9.866C21.5 9.131 21.172 8.435 20.605 7.964L13.943 2.674C13.3773 2.22525 12.6732 1.98697 11.9513 1.99992C11.2293 2.01287 10.5343 2.27624 9.985 2.745L3.467 7.963C3.17385 8.18799 2.93483 8.4758 2.76749 8.80529C2.60015 9.13477 2.50875 9.49756 2.5 9.867V18.57C2.5 20.464 4.047 22 5.956 22H7.872C8.199 22.002 8.513 21.875 8.745 21.646C8.977 21.418 9.108 21.106 9.108 20.782H9.144Z" fill="#51ABC5"/>
</svg>
