<svg width="54" height="54" viewBox="0 0 54 54" fill="none" xmlns="http://www.w3.org/2000/svg">
<circle cx="27" cy="27" r="25" fill="#FF7555" stroke="white" stroke-width="4"/>
<path d="M23.4667 30.8107C18.1813 30.8107 13.6667 31.6267 13.6667 34.8907C13.6667 38.1547 18.152 39 23.4667 39C28.7507 39 33.2653 38.184 33.2653 34.92C33.2653 31.6547 28.78 30.8107 23.4653 30.8107H23.4667Z" fill="white"/>
<path d="M23.4667 27.7C27.0653 27.7 29.9493 24.8747 29.9493 21.3493C29.9493 17.8267 27.0667 15 23.4667 15C19.868 15 16.9813 17.8253 16.9813 21.3493C16.9813 24.8747 19.868 27.7 23.4653 27.7H23.4667ZM32.5653 21.4653C32.5693 23.2027 32.0401 24.8995 31.0493 26.3267C30.948 26.4693 31.036 26.6627 31.212 26.6933C31.4547 26.7333 31.704 26.7573 31.9587 26.7627C34.4893 26.8267 36.76 25.232 37.388 22.8293C38.3187 19.2627 35.588 16.06 32.112 16.06C31.7457 16.0603 31.3804 16.097 31.0213 16.1693C30.9733 16.18 30.9213 16.2027 30.8947 16.2427C30.8613 16.296 30.8853 16.3627 30.92 16.408C31.992 17.8761 32.5683 19.6475 32.5653 21.4653Z" fill="white"/>
<path d="M40.04 31.2267C39.576 30.2587 38.4573 29.596 36.756 29.2693C35.9547 29.0787 33.78 28.8053 31.76 28.844C31.7293 28.848 31.7133 28.868 31.7107 28.8813C31.7067 28.9013 31.716 28.932 31.7547 28.9547C32.688 29.4067 36.2987 31.3747 35.844 35.524C35.8384 35.5662 35.8427 35.609 35.8565 35.6493C35.8702 35.6895 35.8931 35.7261 35.9233 35.756C35.9535 35.7859 35.9902 35.8085 36.0306 35.8219C36.071 35.8353 36.1139 35.8392 36.156 35.8333C37.0453 35.7093 39.3293 35.228 40.0387 33.7293C40.2323 33.3404 40.3331 32.9118 40.3331 32.4773C40.3331 32.0428 40.2323 31.6143 40.0387 31.2253L40.04 31.2267Z" fill="white"/>
</svg>
